solid OpenSCAD_Model
  facet normal 1 -0 0
    outer loop
      vertex 31.6 0 20
      vertex 31.6 31.6 0
      vertex 31.6 31.6 20
    endloop
  endfacet
  facet normal 1 0 0
    outer loop
      vertex 31.6 31.6 0
      vertex 31.6 0 20
      vertex 31.6 0 0
    endloop
  endfacet
  facet normal 0 0 1
    outer loop
      vertex 31.6 31.6 20
      vertex 28.6 28.6 20
      vertex 31.6 0 20
    endloop
  endfacet
  facet normal 0 0 1
    outer loop
      vertex 31.6 31.6 20
      vertex 3 28.6 20
      vertex 28.6 28.6 20
    endloop
  endfacet
  facet normal 0 0 1
    outer loop
      vertex 3 28.6 20
      vertex 0 31.6 20
      vertex 3 3 20
    endloop
  endfacet
  facet normal -0 0 1
    outer loop
      vertex 0 31.6 20
      vertex 3 28.6 20
      vertex 31.6 31.6 20
    endloop
  endfacet
  facet normal -0 0 1
    outer loop
      vertex 28.6 3 20
      vertex 31.6 0 20
      vertex 28.6 28.6 20
    endloop
  endfacet
  facet normal 0 0 1
    outer loop
      vertex 28.6 3 20
      vertex 5 0 20
      vertex 31.6 0 20
    endloop
  endfacet
  facet normal 0 0 1
    outer loop
      vertex 3 3 20
      vertex 5 -42.1672 20
      vertex 5 0 20
    endloop
  endfacet
  facet normal -0 0 1
    outer loop
      vertex 3 3 20
      vertex 5 0 20
      vertex 28.6 3 20
    endloop
  endfacet
  facet normal 0 0 1
    outer loop
      vertex 5 -42.1672 20
      vertex 3 3 20
      vertex 0 -64 20
    endloop
  endfacet
  facet normal 0 0 1
    outer loop
      vertex 0 -64 20
      vertex 3 3 20
      vertex 0 31.6 20
    endloop
  endfacet
  facet normal 0 0 1
    outer loop
      vertex 5 -42.1672 20
      vertex 0 -64 20
      vertex 5 -64 20
    endloop
  endfacet
  facet normal 0 0 1
    outer loop
      vertex 23.9341 -20.6778 20
      vertex 26.9806 -25.8364 20
      vertex 29.9969 -24.1782 20
    endloop
  endfacet
  facet normal -0 0 1
    outer loop
      vertex 23.7657 -20.7704 20
      vertex 26.9806 -25.8364 20
      vertex 23.9341 -20.6778 20
    endloop
  endfacet
  facet normal 0 0 1
    outer loop
      vertex 23.7657 -20.7704 20
      vertex 22.3884 -29.1728 20
      vertex 26.9806 -25.8364 20
    endloop
  endfacet
  facet normal -0 0 1
    outer loop
      vertex 18.5639 -24.5497 20
      vertex 22.3884 -29.1728 20
      vertex 23.7657 -20.7704 20
    endloop
  endfacet
  facet normal 0 0 1
    outer loop
      vertex 18.5639 -24.5497 20
      vertex 18.2506 -33.0585 20
      vertex 22.3884 -29.1728 20
    endloop
  endfacet
  facet normal -0 0 1
    outer loop
      vertex 13.8768 -28.9512 20
      vertex 18.2506 -33.0585 20
      vertex 18.5639 -24.5497 20
    endloop
  endfacet
  facet normal 0 0 1
    outer loop
      vertex 18.2506 -33.0585 20
      vertex 13.8768 -28.9512 20
      vertex 14.6324 -37.4321 20
    endloop
  endfacet
  facet normal -0 0 1
    outer loop
      vertex 9.77833 -33.9054 20
      vertex 14.6324 -37.4321 20
      vertex 13.8768 -28.9512 20
    endloop
  endfacet
  facet normal 0 0 1
    outer loop
      vertex 14.6324 -37.4321 20
      vertex 9.77833 -33.9054 20
      vertex 11.5909 -42.2247 20
    endloop
  endfacet
  facet normal -0 0 1
    outer loop
      vertex 6.3331 -39.3342 20
      vertex 11.5909 -42.2247 20
      vertex 9.77833 -33.9054 20
    endloop
  endfacet
  facet normal -0 0 1
    outer loop
      vertex 5 -42.1672 20
      vertex 11.5909 -42.2247 20
      vertex 6.3331 -39.3342 20
    endloop
  endfacet
  facet normal 0 0 1
    outer loop
      vertex 11.5909 -42.2247 20
      vertex 5 -42.1672 20
      vertex 9.1741 -47.3608 20
    endloop
  endfacet
  facet normal 0 0 1
    outer loop
      vertex 9.1741 -47.3608 20
      vertex 5 -42.1672 20
      vertex 7.42004 -52.7592 20
    endloop
  endfacet
  facet normal 0 0 1
    outer loop
      vertex 7.42004 -52.7592 20
      vertex 5 -42.1672 20
      vertex 6.35641 -58.3349 20
    endloop
  endfacet
  facet normal 0 0 1
    outer loop
      vertex 5 -64 20
      vertex 6.35641 -58.3349 20
      vertex 5 -42.1672 20
    endloop
  endfacet
  facet normal 0 0 1
    outer loop
      vertex 6.35641 -58.3349 20
      vertex 5 -64 20
      vertex 6 -64 20
    endloop
  endfacet
  facet normal 0 0 -1
    outer loop
      vertex 26.9806 -25.8364 0
      vertex 23.9341 -20.6778 0
      vertex 29.9969 -24.1782 0
    endloop
  endfacet
  facet normal 0 0 -1
    outer loop
      vertex 26.9806 -25.8364 0
      vertex 23.7657 -20.7704 0
      vertex 23.9341 -20.6778 0
    endloop
  endfacet
  facet normal 0 0 -1
    outer loop
      vertex 22.3884 -29.1728 0
      vertex 23.7657 -20.7704 0
      vertex 26.9806 -25.8364 0
    endloop
  endfacet
  facet normal 0 0 -1
    outer loop
      vertex 22.3884 -29.1728 0
      vertex 18.5639 -24.5497 0
      vertex 23.7657 -20.7704 0
    endloop
  endfacet
  facet normal 0 0 -1
    outer loop
      vertex 18.2506 -33.0585 0
      vertex 18.5639 -24.5497 0
      vertex 22.3884 -29.1728 0
    endloop
  endfacet
  facet normal 0 0 -1
    outer loop
      vertex 13.8768 -28.9512 0
      vertex 18.2506 -33.0585 0
      vertex 14.6324 -37.4321 0
    endloop
  endfacet
  facet normal 0 0 -1
    outer loop
      vertex 18.2506 -33.0585 0
      vertex 13.8768 -28.9512 0
      vertex 18.5639 -24.5497 0
    endloop
  endfacet
  facet normal 0 0 -1
    outer loop
      vertex 9.77833 -33.9054 0
      vertex 14.6324 -37.4321 0
      vertex 11.5909 -42.2247 0
    endloop
  endfacet
  facet normal 0 0 -1
    outer loop
      vertex 14.6324 -37.4321 0
      vertex 9.77833 -33.9054 0
      vertex 13.8768 -28.9512 0
    endloop
  endfacet
  facet normal 0 0 -1
    outer loop
      vertex 5 -42.1672 0
      vertex 11.5909 -42.2247 0
      vertex 9.1741 -47.3608 0
    endloop
  endfacet
  facet normal 0 0 -1
    outer loop
      vertex 5 -42.1672 0
      vertex 9.1741 -47.3608 0
      vertex 7.42004 -52.7592 0
    endloop
  endfacet
  facet normal 0 0 -1
    outer loop
      vertex 0 -64 0
      vertex 7.42004 -52.7592 0
      vertex 6.35641 -58.3349 0
    endloop
  endfacet
  facet normal 0 0 -1
    outer loop
      vertex 11.5909 -42.2247 0
      vertex 6.3331 -39.3342 0
      vertex 9.77833 -33.9054 0
    endloop
  endfacet
  facet normal 0 0 -1
    outer loop
      vertex 5 -64 0
      vertex 6.35641 -58.3349 0
      vertex 6 -64 0
    endloop
  endfacet
  facet normal 0 0 -1
    outer loop
      vertex 0 -64 0
      vertex 6.35641 -58.3349 0
      vertex 5 -64 0
    endloop
  endfacet
  facet normal 0 0 -1
    outer loop
      vertex 11.5909 -42.2247 0
      vertex 5 -42.1672 0
      vertex 6.3331 -39.3342 0
    endloop
  endfacet
  facet normal -0 0 -1
    outer loop
      vertex 7.42004 -52.7592 0
      vertex 0 -64 0
      vertex 5 -42.1672 0
    endloop
  endfacet
  facet normal 0 -0 -1
    outer loop
      vertex 3 3 0
      vertex 5 -42.1672 0
      vertex 0 -64 0
    endloop
  endfacet
  facet normal 0 0 -1
    outer loop
      vertex 0 31.6 0
      vertex 3 3 0
      vertex 0 -64 0
    endloop
  endfacet
  facet normal 0 0 -1
    outer loop
      vertex 5 -42.1672 0
      vertex 3 3 0
      vertex 5 0 0
    endloop
  endfacet
  facet normal 0 0 -1
    outer loop
      vertex 31.6 0 0
      vertex 28.6 3 0
      vertex 31.6 31.6 0
    endloop
  endfacet
  facet normal 0 0 -1
    outer loop
      vertex 5 0 0
      vertex 28.6 3 0
      vertex 31.6 0 0
    endloop
  endfacet
  facet normal -0 0 -1
    outer loop
      vertex 28.6 3 0
      vertex 5 0 0
      vertex 3 3 0
    endloop
  endfacet
  facet normal 0 0 -1
    outer loop
      vertex 28.6 28.6 0
      vertex 31.6 31.6 0
      vertex 28.6 3 0
    endloop
  endfacet
  facet normal 0 0 -1
    outer loop
      vertex 3 28.6 0
      vertex 31.6 31.6 0
      vertex 28.6 28.6 0
    endloop
  endfacet
  facet normal 0 0 -1
    outer loop
      vertex 3 28.6 0
      vertex 0 31.6 0
      vertex 31.6 31.6 0
    endloop
  endfacet
  facet normal 0 0 -1
    outer loop
      vertex 3 3 0
      vertex 0 31.6 0
      vertex 3 28.6 0
    endloop
  endfacet
  facet normal -1 0 0
    outer loop
      vertex 0 -64 0
      vertex 0 31.6 20
      vertex 0 31.6 0
    endloop
  endfacet
  facet normal -1 -0 0
    outer loop
      vertex 0 31.6 20
      vertex 0 -64 0
      vertex 0 -64 20
    endloop
  endfacet
  facet normal 0 1 -0
    outer loop
      vertex 31.6 31.6 0
      vertex 0 31.6 20
      vertex 31.6 31.6 20
    endloop
  endfacet
  facet normal 0 1 0
    outer loop
      vertex 0 31.6 20
      vertex 31.6 31.6 0
      vertex 0 31.6 0
    endloop
  endfacet
  facet normal 0 -1 0
    outer loop
      vertex 5 0 0
      vertex 31.6 0 20
      vertex 5 0 20
    endloop
  endfacet
  facet normal 0 -1 -0
    outer loop
      vertex 31.6 0 20
      vertex 5 0 0
      vertex 31.6 0 0
    endloop
  endfacet
  facet normal -1 0 0
    outer loop
      vertex 28.6 3 0
      vertex 28.6 28.6 20
      vertex 28.6 28.6 0
    endloop
  endfacet
  facet normal -1 -0 0
    outer loop
      vertex 28.6 28.6 20
      vertex 28.6 3 0
      vertex 28.6 3 20
    endloop
  endfacet
  facet normal 1 -0 0
    outer loop
      vertex 3 3 20
      vertex 3 28.6 0
      vertex 3 28.6 20
    endloop
  endfacet
  facet normal 1 0 0
    outer loop
      vertex 3 28.6 0
      vertex 3 3 20
      vertex 3 3 0
    endloop
  endfacet
  facet normal 0 -1 0
    outer loop
      vertex 3 28.6 0
      vertex 28.6 28.6 20
      vertex 3 28.6 20
    endloop
  endfacet
  facet normal 0 -1 -0
    outer loop
      vertex 28.6 28.6 20
      vertex 3 28.6 0
      vertex 28.6 28.6 0
    endloop
  endfacet
  facet normal 0 1 -0
    outer loop
      vertex 28.6 3 0
      vertex 3 3 20
      vertex 28.6 3 20
    endloop
  endfacet
  facet normal 0 1 0
    outer loop
      vertex 3 3 20
      vertex 28.6 3 0
      vertex 3 3 0
    endloop
  endfacet
  facet normal -0.684547 0.728969 0
    outer loop
      vertex 18.5639 -24.5497 0
      vertex 13.8768 -28.9512 20
      vertex 18.5639 -24.5497 20
    endloop
  endfacet
  facet normal -0.684547 0.728969 0
    outer loop
      vertex 13.8768 -28.9512 20
      vertex 18.5639 -24.5497 0
      vertex 13.8768 -28.9512 0
    endloop
  endfacet
  facet normal -0.904827 0.42578 0
    outer loop
      vertex 5 -42.1672 0
      vertex 6.3331 -39.3342 20
      vertex 6.3331 -39.3342 0
    endloop
  endfacet
  facet normal -0.904827 0.42578 0
    outer loop
      vertex 6.3331 -39.3342 20
      vertex 5 -42.1672 0
      vertex 5 -42.1672 20
    endloop
  endfacet
  facet normal -0.587785 0.809017 0
    outer loop
      vertex 23.7657 -20.7704 0
      vertex 18.5639 -24.5497 20
      vertex 23.7657 -20.7704 20
    endloop
  endfacet
  facet normal -0.587785 0.809017 0
    outer loop
      vertex 18.5639 -24.5497 20
      vertex 23.7657 -20.7704 0
      vertex 18.5639 -24.5497 0
    endloop
  endfacet
  facet normal -0.481758 0.876305 0
    outer loop
      vertex 24.2154 -20.5232 13
      vertex 24.2154 -20.5232 7
      vertex 23.9341 -20.6778 13
    endloop
  endfacet
  facet normal -0.481745 0.876312 0
    outer loop
      vertex 23.9341 -20.6778 13
      vertex 23.7657 -20.7704 20
      vertex 23.9341 -20.6778 20
    endloop
  endfacet
  facet normal -0.481758 0.876305 0
    outer loop
      vertex 23.9341 -20.6778 7
      vertex 23.9341 -20.6778 13
      vertex 24.2154 -20.5232 7
    endloop
  endfacet
  facet normal -0.481745 0.876312 0
    outer loop
      vertex 23.9341 -20.6778 7
      vertex 23.7657 -20.7704 20
      vertex 23.9341 -20.6778 13
    endloop
  endfacet
  facet normal -0.481745 0.876312 0
    outer loop
      vertex 23.7657 -20.7704 0
      vertex 23.9341 -20.6778 7
      vertex 23.9341 -20.6778 0
    endloop
  endfacet
  facet normal -0.481745 0.876312 0
    outer loop
      vertex 23.9341 -20.6778 7
      vertex 23.7657 -20.7704 0
      vertex 23.7657 -20.7704 20
    endloop
  endfacet
  facet normal -0.844328 0.535827 0
    outer loop
      vertex 6.3331 -39.3342 0
      vertex 9.77833 -33.9054 20
      vertex 9.77833 -33.9054 0
    endloop
  endfacet
  facet normal -0.844328 0.535827 0
    outer loop
      vertex 9.77833 -33.9054 20
      vertex 6.3331 -39.3342 0
      vertex 6.3331 -39.3342 20
    endloop
  endfacet
  facet normal -0.770513 0.637424 0
    outer loop
      vertex 9.77833 -33.9054 0
      vertex 13.8768 -28.9512 20
      vertex 13.8768 -28.9512 0
    endloop
  endfacet
  facet normal -0.770513 0.637424 0
    outer loop
      vertex 13.8768 -28.9512 20
      vertex 9.77833 -33.9054 0
      vertex 9.77833 -33.9054 20
    endloop
  endfacet
  facet normal 0.770513 -0.637424 0
    outer loop
      vertex 14.6324 -37.4321 7
      vertex 18.2506 -33.0585 0
      vertex 18.2506 -33.0585 7
    endloop
  endfacet
  facet normal 0.770513 -0.637424 0
    outer loop
      vertex 18.2506 -33.0585 0
      vertex 14.6324 -37.4321 7
      vertex 14.6324 -37.4321 0
    endloop
  endfacet
  facet normal 0.770513 -0.637424 0
    outer loop
      vertex 14.6324 -37.4321 20
      vertex 18.2506 -33.0585 13
      vertex 18.2506 -33.0585 20
    endloop
  endfacet
  facet normal 0.770513 -0.637424 0
    outer loop
      vertex 18.2506 -33.0585 13
      vertex 14.6324 -37.4321 20
      vertex 14.6324 -37.4321 13
    endloop
  endfacet
  facet normal 0.58779 -0.809013 0
    outer loop
      vertex 22.3884 -29.1728 7
      vertex 22.3884 -29.1728 0
      vertex 22.4719 -29.1122 7
    endloop
  endfacet
  facet normal 0.58779 -0.809013 0
    outer loop
      vertex 22.4719 -29.1122 13
      vertex 22.3884 -29.1728 20
      vertex 22.3884 -29.1728 13
    endloop
  endfacet
  facet normal 0.587785 -0.809017 -8.72327e-08
    outer loop
      vertex 22.3884 -29.1728 20
      vertex 22.4719 -29.1122 13
      vertex 26.9806 -25.8364 20
    endloop
  endfacet
  facet normal 0.587785 -0.809017 0
    outer loop
      vertex 22.4719 -29.1122 7
      vertex 26.9806 -25.8364 20
      vertex 22.4719 -29.1122 13
    endloop
  endfacet
  facet normal 0.587785 -0.809017 8.72327e-08
    outer loop
      vertex 26.9806 -25.8364 0
      vertex 22.4719 -29.1122 7
      vertex 22.3884 -29.1728 0
    endloop
  endfacet
  facet normal 0.587785 -0.809017 0
    outer loop
      vertex 22.4719 -29.1122 7
      vertex 26.9806 -25.8364 0
      vertex 26.9806 -25.8364 20
    endloop
  endfacet
  facet normal 0.951056 -0.309017 0
    outer loop
      vertex 9.1741 -47.3608 20
      vertex 8.02809 -50.8878 13
      vertex 9.1741 -47.3608 13
    endloop
  endfacet
  facet normal 0.951056 -0.309017 0
    outer loop
      vertex 8.02809 -50.8878 13
      vertex 7.42004 -52.7592 20
      vertex 8.02809 -50.8878 7
    endloop
  endfacet
  facet normal 0.951056 -0.309017 -2.73632e-09
    outer loop
      vertex 7.42004 -52.7592 20
      vertex 8.02809 -50.8878 13
      vertex 9.1741 -47.3608 20
    endloop
  endfacet
  facet normal 0.951056 -0.309017 0
    outer loop
      vertex 8.02809 -50.8878 7
      vertex 9.1741 -47.3608 0
      vertex 9.1741 -47.3608 7
    endloop
  endfacet
  facet normal 0.951056 -0.309017 2.73632e-09
    outer loop
      vertex 8.02809 -50.8878 7
      vertex 7.42004 -52.7592 0
      vertex 9.1741 -47.3608 0
    endloop
  endfacet
  facet normal 0.951056 -0.309017 0
    outer loop
      vertex 7.42004 -52.7592 0
      vertex 8.02809 -50.8878 7
      vertex 7.42004 -52.7592 20
    endloop
  endfacet
  facet normal 0.904827 -0.425779 0
    outer loop
      vertex 9.1741 -47.3608 7
      vertex 11.5909 -42.2247 0
      vertex 11.5909 -42.2247 7
    endloop
  endfacet
  facet normal 0.904827 -0.425779 0
    outer loop
      vertex 11.5909 -42.2247 0
      vertex 9.1741 -47.3608 7
      vertex 9.1741 -47.3608 0
    endloop
  endfacet
  facet normal 0.904827 -0.425779 0
    outer loop
      vertex 9.1741 -47.3608 20
      vertex 11.5909 -42.2247 13
      vertex 11.5909 -42.2247 20
    endloop
  endfacet
  facet normal 0.904827 -0.425779 0
    outer loop
      vertex 11.5909 -42.2247 13
      vertex 9.1741 -47.3608 20
      vertex 9.1741 -47.3608 13
    endloop
  endfacet
  facet normal 0.982287 -0.187381 0
    outer loop
      vertex 6.35641 -58.3349 20
      vertex 7.42004 -52.7592 0
      vertex 7.42004 -52.7592 20
    endloop
  endfacet
  facet normal 0.982287 -0.187381 0
    outer loop
      vertex 7.42004 -52.7592 0
      vertex 6.35641 -58.3349 20
      vertex 6.35641 -58.3349 0
    endloop
  endfacet
  facet normal 0.684547 -0.728969 0
    outer loop
      vertex 18.2506 -33.0585 0
      vertex 22.3884 -29.1728 7
      vertex 18.2506 -33.0585 7
    endloop
  endfacet
  facet normal 0.684547 -0.728969 0
    outer loop
      vertex 22.3884 -29.1728 7
      vertex 18.2506 -33.0585 0
      vertex 22.3884 -29.1728 0
    endloop
  endfacet
  facet normal 0.684547 -0.728969 0
    outer loop
      vertex 18.2506 -33.0585 13
      vertex 22.3884 -29.1728 20
      vertex 18.2506 -33.0585 20
    endloop
  endfacet
  facet normal 0.684547 -0.728969 0
    outer loop
      vertex 22.3884 -29.1728 20
      vertex 18.2506 -33.0585 13
      vertex 22.3884 -29.1728 13
    endloop
  endfacet
  facet normal 0.844328 -0.535827 0
    outer loop
      vertex 11.5909 -42.2247 7
      vertex 14.6324 -37.4321 0
      vertex 14.6324 -37.4321 7
    endloop
  endfacet
  facet normal 0.844328 -0.535827 0
    outer loop
      vertex 14.6324 -37.4321 0
      vertex 11.5909 -42.2247 7
      vertex 11.5909 -42.2247 0
    endloop
  endfacet
  facet normal 0.844328 -0.535827 0
    outer loop
      vertex 11.5909 -42.2247 20
      vertex 14.6324 -37.4321 13
      vertex 14.6324 -37.4321 20
    endloop
  endfacet
  facet normal 0.844328 -0.535827 0
    outer loop
      vertex 14.6324 -37.4321 13
      vertex 11.5909 -42.2247 20
      vertex 11.5909 -42.2247 13
    endloop
  endfacet
  facet normal 0.998027 -0.0627904 0
    outer loop
      vertex 6 -64 20
      vertex 6.35641 -58.3349 0
      vertex 6.35641 -58.3349 20
    endloop
  endfacet
  facet normal 0.998027 -0.0627904 0
    outer loop
      vertex 6.35641 -58.3349 0
      vertex 6 -64 20
      vertex 6 -64 0
    endloop
  endfacet
  facet normal 0.481753 -0.876307 0
    outer loop
      vertex 26.9806 -25.8364 0
      vertex 29.9969 -24.1782 20
      vertex 26.9806 -25.8364 20
    endloop
  endfacet
  facet normal 0.481753 -0.876307 0
    outer loop
      vertex 29.9969 -24.1782 20
      vertex 26.9806 -25.8364 0
      vertex 29.9969 -24.1782 0
    endloop
  endfacet
  facet normal 0 -1 0
    outer loop
      vertex 5 -64 0
      vertex 6 -64 20
      vertex 5 -64 20
    endloop
  endfacet
  facet normal 0 -1 -0
    outer loop
      vertex 6 -64 20
      vertex 5 -64 0
      vertex 6 -64 0
    endloop
  endfacet
  facet normal 0 -1 0
    outer loop
      vertex 0 -64 0
      vertex 5 -64 20
      vertex 0 -64 20
    endloop
  endfacet
  facet normal 0 -1 -0
    outer loop
      vertex 5 -64 20
      vertex 0 -64 0
      vertex 5 -64 0
    endloop
  endfacet
  facet normal 0.5 0.866025 4.85134e-08
    outer loop
      vertex 29.9969 -24.1782 20
      vertex 24.1962 -20.8292 13
      vertex 23.9341 -20.6778 20
    endloop
  endfacet
  facet normal 0.5 0.866025 0
    outer loop
      vertex 29.9969 -24.1782 20
      vertex 24.1962 -20.8292 7
      vertex 24.1962 -20.8292 13
    endloop
  endfacet
  facet normal 0.5 0.866025 -0
    outer loop
      vertex 29.9969 -24.1782 0
      vertex 24.1962 -20.8292 7
      vertex 29.9969 -24.1782 20
    endloop
  endfacet
  facet normal 0.5 0.866025 -4.85134e-08
    outer loop
      vertex 23.9341 -20.6778 0
      vertex 24.1962 -20.8292 7
      vertex 29.9969 -24.1782 0
    endloop
  endfacet
  facet normal 0.499999 0.866026 0
    outer loop
      vertex 24.1962 -20.8292 7
      vertex 23.9341 -20.6778 0
      vertex 23.9341 -20.6778 7
    endloop
  endfacet
  facet normal 0.499999 0.866026 0
    outer loop
      vertex 23.9341 -20.6778 20
      vertex 24.1962 -20.8292 13
      vertex 23.9341 -20.6778 13
    endloop
  endfacet
  facet normal 0 0 -1
    outer loop
      vertex 21.3259 -32.6392 7
      vertex 22.3884 -29.1728 7
      vertex 22.4719 -29.1122 7
    endloop
  endfacet
  facet normal 0 0 -1
    outer loop
      vertex 18.2506 -33.0585 7
      vertex 21.3259 -32.6392 7
      vertex 18.9091 -37.7753 7
    endloop
  endfacet
  facet normal -0 0 -1
    outer loop
      vertex 21.3259 -32.6392 7
      vertex 18.2506 -33.0585 7
      vertex 22.3884 -29.1728 7
    endloop
  endfacet
  facet normal 0 0 -1
    outer loop
      vertex 14.6324 -37.4321 7
      vertex 18.9091 -37.7753 7
      vertex 15.8676 -42.5679 7
    endloop
  endfacet
  facet normal 0 0 -1
    outer loop
      vertex 18.9091 -37.7753 7
      vertex 14.6324 -37.4321 7
      vertex 18.2506 -33.0585 7
    endloop
  endfacet
  facet normal 0 0 -1
    outer loop
      vertex 11.5909 -42.2247 7
      vertex 15.8676 -42.5679 7
      vertex 12.2494 -46.9415 7
    endloop
  endfacet
  facet normal 0 0 -1
    outer loop
      vertex 15.8676 -42.5679 7
      vertex 11.5909 -42.2247 7
      vertex 14.6324 -37.4321 7
    endloop
  endfacet
  facet normal -0 0 -1
    outer loop
      vertex 12.2494 -46.9415 7
      vertex 9.1741 -47.3608 7
      vertex 11.5909 -42.2247 7
    endloop
  endfacet
  facet normal 0 0 -1
    outer loop
      vertex 8.11156 -50.8272 7
      vertex 9.1741 -47.3608 7
      vertex 12.2494 -46.9415 7
    endloop
  endfacet
  facet normal 0 0 -1
    outer loop
      vertex 9.1741 -47.3608 7
      vertex 8.11156 -50.8272 7
      vertex 8.02809 -50.8878 7
    endloop
  endfacet
  facet normal 0 0 -1
    outer loop
      vertex 24.1962 -20.8292 7
      vertex 23.9341 -20.6778 7
      vertex 24.2154 -20.5232 7
    endloop
  endfacet
  facet normal 0.998027 -0.0627903 0
    outer loop
      vertex 24.1962 -20.8292 13
      vertex 24.2154 -20.5232 7
      vertex 24.2154 -20.5232 13
    endloop
  endfacet
  facet normal 0.998027 -0.0627903 0
    outer loop
      vertex 24.2154 -20.5232 7
      vertex 24.1962 -20.8292 13
      vertex 24.1962 -20.8292 7
    endloop
  endfacet
  facet normal 0.904827 -0.425779 0
    outer loop
      vertex 18.9091 -37.7753 13
      vertex 21.3259 -32.6392 7
      vertex 21.3259 -32.6392 13
    endloop
  endfacet
  facet normal 0.904827 -0.425779 0
    outer loop
      vertex 21.3259 -32.6392 7
      vertex 18.9091 -37.7753 13
      vertex 18.9091 -37.7753 7
    endloop
  endfacet
  facet normal 0.951057 -0.309017 0
    outer loop
      vertex 21.3259 -32.6392 13
      vertex 22.4719 -29.1122 7
      vertex 22.4719 -29.1122 13
    endloop
  endfacet
  facet normal 0.951057 -0.309017 0
    outer loop
      vertex 22.4719 -29.1122 7
      vertex 21.3259 -32.6392 13
      vertex 21.3259 -32.6392 7
    endloop
  endfacet
  facet normal -0 0 1
    outer loop
      vertex 22.3884 -29.1728 13
      vertex 21.3259 -32.6392 13
      vertex 22.4719 -29.1122 13
    endloop
  endfacet
  facet normal 0 0 1
    outer loop
      vertex 18.2506 -33.0585 13
      vertex 21.3259 -32.6392 13
      vertex 22.3884 -29.1728 13
    endloop
  endfacet
  facet normal 0 0 1
    outer loop
      vertex 21.3259 -32.6392 13
      vertex 18.2506 -33.0585 13
      vertex 18.9091 -37.7753 13
    endloop
  endfacet
  facet normal -0 0 1
    outer loop
      vertex 14.6324 -37.4321 13
      vertex 18.9091 -37.7753 13
      vertex 18.2506 -33.0585 13
    endloop
  endfacet
  facet normal 0 0 1
    outer loop
      vertex 18.9091 -37.7753 13
      vertex 14.6324 -37.4321 13
      vertex 15.8676 -42.5679 13
    endloop
  endfacet
  facet normal -0 0 1
    outer loop
      vertex 11.5909 -42.2247 13
      vertex 15.8676 -42.5679 13
      vertex 14.6324 -37.4321 13
    endloop
  endfacet
  facet normal 0 0 1
    outer loop
      vertex 15.8676 -42.5679 13
      vertex 11.5909 -42.2247 13
      vertex 12.2494 -46.9415 13
    endloop
  endfacet
  facet normal 0 0 1
    outer loop
      vertex 9.1741 -47.3608 13
      vertex 12.2494 -46.9415 13
      vertex 11.5909 -42.2247 13
    endloop
  endfacet
  facet normal -0 0 1
    outer loop
      vertex 9.1741 -47.3608 13
      vertex 8.11156 -50.8272 13
      vertex 12.2494 -46.9415 13
    endloop
  endfacet
  facet normal 0 -0 1
    outer loop
      vertex 8.11156 -50.8272 13
      vertex 9.1741 -47.3608 13
      vertex 8.02809 -50.8878 13
    endloop
  endfacet
  facet normal 0 0 1
    outer loop
      vertex 24.2154 -20.5232 13
      vertex 23.9341 -20.6778 13
      vertex 24.1962 -20.8292 13
    endloop
  endfacet
  facet normal 0.844328 -0.535827 0
    outer loop
      vertex 15.8676 -42.5679 13
      vertex 18.9091 -37.7753 7
      vertex 18.9091 -37.7753 13
    endloop
  endfacet
  facet normal 0.844328 -0.535827 0
    outer loop
      vertex 18.9091 -37.7753 7
      vertex 15.8676 -42.5679 13
      vertex 15.8676 -42.5679 7
    endloop
  endfacet
  facet normal 0.770513 -0.637424 0
    outer loop
      vertex 12.2494 -46.9415 13
      vertex 15.8676 -42.5679 7
      vertex 15.8676 -42.5679 13
    endloop
  endfacet
  facet normal 0.770513 -0.637424 0
    outer loop
      vertex 15.8676 -42.5679 7
      vertex 12.2494 -46.9415 13
      vertex 12.2494 -46.9415 7
    endloop
  endfacet
  facet normal 0.587783 -0.809019 0
    outer loop
      vertex 8.02809 -50.8878 7
      vertex 8.11156 -50.8272 13
      vertex 8.02809 -50.8878 13
    endloop
  endfacet
  facet normal 0.587783 -0.809019 0
    outer loop
      vertex 8.11156 -50.8272 13
      vertex 8.02809 -50.8878 7
      vertex 8.11156 -50.8272 7
    endloop
  endfacet
  facet normal 0.684547 -0.728969 0
    outer loop
      vertex 8.11156 -50.8272 7
      vertex 12.2494 -46.9415 13
      vertex 8.11156 -50.8272 13
    endloop
  endfacet
  facet normal 0.684547 -0.728969 0
    outer loop
      vertex 12.2494 -46.9415 13
      vertex 8.11156 -50.8272 7
      vertex 12.2494 -46.9415 7
    endloop
  endfacet
  facet normal 1 -0 0
    outer loop
      vertex 5 -42.1672 20
      vertex 5 0 0
      vertex 5 0 20
    endloop
  endfacet
  facet normal 1 0 0
    outer loop
      vertex 5 0 0
      vertex 5 -42.1672 20
      vertex 5 -42.1672 0
    endloop
  endfacet
endsolid OpenSCAD_Model
