solid OpenSCAD_Model
  facet normal -1 0 0
    outer loop
      vertex -31 -9.5 -10
      vertex -31 9.5 10
      vertex -31 9.5 -10
    endloop
  endfacet
  facet normal -1 -0 0
    outer loop
      vertex -31 9.5 10
      vertex -31 -9.5 -10
      vertex -31 -9.5 10
    endloop
  endfacet
  facet normal 0 0 1
    outer loop
      vertex 31 9.5 10
      vertex 30 8.5 10
      vertex 31 -9.5 10
    endloop
  endfacet
  facet normal 0 0 1
    outer loop
      vertex 31 9.5 10
      vertex -30 8.5 10
      vertex 30 8.5 10
    endloop
  endfacet
  facet normal 0 0 1
    outer loop
      vertex -30 8.5 10
      vertex -31 9.5 10
      vertex -30 -8.5 10
    endloop
  endfacet
  facet normal -0 0 1
    outer loop
      vertex -31 9.5 10
      vertex -30 8.5 10
      vertex 31 9.5 10
    endloop
  endfacet
  facet normal -0 0 1
    outer loop
      vertex 30 -8.5 10
      vertex 31 -9.5 10
      vertex 30 8.5 10
    endloop
  endfacet
  facet normal -0 0 1
    outer loop
      vertex -30 -8.5 10
      vertex 31 -9.5 10
      vertex 30 -8.5 10
    endloop
  endfacet
  facet normal 0 0 1
    outer loop
      vertex -30 -8.5 10
      vertex -31 -9.5 10
      vertex 31 -9.5 10
    endloop
  endfacet
  facet normal 0 0 1
    outer loop
      vertex -31 -9.5 10
      vertex -30 -8.5 10
      vertex -31 9.5 10
    endloop
  endfacet
  facet normal 1 -0 0
    outer loop
      vertex 31 -9.5 10
      vertex 31 9.5 -10
      vertex 31 9.5 10
    endloop
  endfacet
  facet normal 1 0 0
    outer loop
      vertex 31 9.5 -10
      vertex 31 -9.5 10
      vertex 31 -9.5 -10
    endloop
  endfacet
  facet normal 0 1 -0
    outer loop
      vertex 31 9.5 -10
      vertex -31 9.5 10
      vertex 31 9.5 10
    endloop
  endfacet
  facet normal 0 1 0
    outer loop
      vertex -31 9.5 10
      vertex 31 9.5 -10
      vertex -31 9.5 -10
    endloop
  endfacet
  facet normal 0 0 -1
    outer loop
      vertex 31 -9.5 -10
      vertex 30 -8.5 -10
      vertex 31 9.5 -10
    endloop
  endfacet
  facet normal 0 0 -1
    outer loop
      vertex 31 -9.5 -10
      vertex -30 -8.5 -10
      vertex 30 -8.5 -10
    endloop
  endfacet
  facet normal -0 0 -1
    outer loop
      vertex -30 -8.5 -10
      vertex -31 -9.5 -10
      vertex -30 8.5 -10
    endloop
  endfacet
  facet normal 0 0 -1
    outer loop
      vertex -31 -9.5 -10
      vertex -30 -8.5 -10
      vertex 31 -9.5 -10
    endloop
  endfacet
  facet normal 0 0 -1
    outer loop
      vertex 30 8.5 -10
      vertex 31 9.5 -10
      vertex 30 -8.5 -10
    endloop
  endfacet
  facet normal 0 0 -1
    outer loop
      vertex -30 8.5 -10
      vertex 31 9.5 -10
      vertex 30 8.5 -10
    endloop
  endfacet
  facet normal 0 0 -1
    outer loop
      vertex -30 8.5 -10
      vertex -31 9.5 -10
      vertex 31 9.5 -10
    endloop
  endfacet
  facet normal 0 0 -1
    outer loop
      vertex -31 9.5 -10
      vertex -30 8.5 -10
      vertex -31 -9.5 -10
    endloop
  endfacet
  facet normal 0 -1 0
    outer loop
      vertex -31 -9.5 -10
      vertex 31 -9.5 10
      vertex -31 -9.5 10
    endloop
  endfacet
  facet normal 0 -1 -0
    outer loop
      vertex 31 -9.5 10
      vertex -31 -9.5 -10
      vertex 31 -9.5 -10
    endloop
  endfacet
  facet normal 1 -0 0
    outer loop
      vertex -30 -8.5 10
      vertex -30 8.5 -10
      vertex -30 8.5 10
    endloop
  endfacet
  facet normal 1 0 0
    outer loop
      vertex -30 8.5 -10
      vertex -30 -8.5 10
      vertex -30 -8.5 -10
    endloop
  endfacet
  facet normal -1 0 0
    outer loop
      vertex 30 -8.5 -10
      vertex 30 8.5 10
      vertex 30 8.5 -10
    endloop
  endfacet
  facet normal -1 -0 0
    outer loop
      vertex 30 8.5 10
      vertex 30 -8.5 -10
      vertex 30 -8.5 10
    endloop
  endfacet
  facet normal 0 -1 0
    outer loop
      vertex -30 8.5 -10
      vertex 30 8.5 10
      vertex -30 8.5 10
    endloop
  endfacet
  facet normal 0 -1 -0
    outer loop
      vertex 30 8.5 10
      vertex -30 8.5 -10
      vertex 30 8.5 -10
    endloop
  endfacet
  facet normal 0 1 -0
    outer loop
      vertex 30 -8.5 -10
      vertex -30 -8.5 10
      vertex 30 -8.5 10
    endloop
  endfacet
  facet normal 0 1 0
    outer loop
      vertex -30 -8.5 10
      vertex 30 -8.5 -10
      vertex -30 -8.5 -10
    endloop
  endfacet
endsolid OpenSCAD_Model
