<?xml version="1.0" encoding="UTF-8" standalone="no"?>
<!-- Created with Inkscape (http://www.inkscape.org/) -->

<svg
   width="65.798645mm"
   height="72.919701mm"
   viewBox="0 0 60.000005 66.493503"
   version="1.1"
   id="svg1"
   xml:space="preserve"
   inkscape:version="1.4.3 (0d15f75042, 2025-12-25)"
   sodipodi:docname="taube.svg"
   xmlns:inkscape="http://www.inkscape.org/namespaces/inkscape"
   xmlns:sodipodi="http://sodipodi.sourceforge.net/DTD/sodipodi-0.dtd"
   xmlns="http://www.w3.org/2000/svg"
   xmlns:svg="http://www.w3.org/2000/svg"><sodipodi:namedview
     id="namedview1"
     pagecolor="#ffffff"
     bordercolor="#000000"
     borderopacity="0.25"
     inkscape:showpageshadow="2"
     inkscape:pageopacity="0.0"
     inkscape:pagecheckerboard="0"
     inkscape:deskcolor="#d1d1d1"
     inkscape:document-units="mm"
     inkscape:zoom="2"
     inkscape:cx="101"
     inkscape:cy="124"
     inkscape:window-width="1920"
     inkscape:window-height="1048"
     inkscape:window-x="0"
     inkscape:window-y="0"
     inkscape:window-maximized="1"
     inkscape:current-layer="layer1" /><defs
     id="defs1" /><g
     inkscape:label="Layer 1"
     inkscape:groupmode="layer"
     id="layer1"
     transform="translate(-30.702115,-67.336371)"><path
       style="fill:#000000;stroke-width:0.384496"
       d="m 66.304016,133.77674 c -0.13988,-0.0444 -0.447066,-0.17928 -0.682635,-0.29962 -0.528021,-0.26975 -0.646745,-0.27134 -1.148528,-0.0154 -0.706381,0.36037 -1.648393,0.18902 -2.177556,-0.3961 -0.232786,-0.25739 -0.524576,-0.2717 -0.973548,-0.0477 -0.789978,0.39409 -1.395214,0.28986 -2.138922,-0.36835 -0.395112,-0.34969 -0.485434,-0.34913 -1.298394,0.008 -0.484369,0.2128 -0.579678,0.22339 -0.999832,0.11101 -0.255432,-0.0683 -0.6317,-0.23788 -0.836145,-0.3768 -0.449064,-0.30515 -0.533084,-0.30854 -1.215734,-0.0491 -0.995134,0.37823 -1.851134,0.16976 -2.471207,-0.60184 l -0.337972,-0.42056 -0.718505,0.0647 c -1.012043,0.091 -1.473512,-0.0564 -1.980893,-0.63277 -0.527848,-0.59967 -0.603286,-0.9848 -0.318844,-1.62782 0.294809,-0.66647 0.379494,-0.74836 2.64941,-2.56195 3.19554,-2.55314 6.011106,-5.54828 6.807228,-7.24137 0.242602,-0.51593 0.263007,-0.6665 0.261942,-1.93289 -0.0012,-1.19469 -0.03003,-1.43624 -0.223177,-1.8566 -0.259693,-0.56522 -0.397731,-0.595 -1.250774,-0.26985 -0.841566,0.32077 -1.562177,0.24083 -2.278909,-0.2528 l -0.556077,-0.38298 -0.489968,0.22022 c -0.269482,0.12112 -0.747941,0.24493 -1.063247,0.27514 -0.740659,0.071 -1.283102,-0.2127 -1.72568,-0.9024 -0.338057,-0.52681 -0.551568,-0.64402 -0.995553,-0.54651 -0.457693,0.10053 -1.174448,-0.13079 -1.518195,-0.48997 -0.169125,-0.17671 -0.414879,-0.55019 -0.546119,-0.82995 l -0.238619,-0.50866 -0.711006,-0.0581 c -1.169072,-0.0955 -1.955086,-0.65268 -2.339037,-1.65805 -0.173615,-0.4546 -0.192436,-0.46874 -0.776866,-0.58372 -0.875533,-0.17225 -1.467242,-0.5855 -1.770248,-1.23633 -0.1365,-0.29318 -0.248627,-0.61102 -0.249173,-0.7063 -0.0019,-0.36571 -0.233596,-0.6817 -0.549133,-0.74957 -0.504651,-0.10854 -2.166982,-0.81404 -2.784687,-1.18184 -0.92166,-0.54877 -1.926522,-1.63388 -2.379593,-2.5696 -0.215303,-0.44466 -0.391456,-0.90713 -0.391456,-1.02771 0,-0.23304 -0.16719,-0.48795 -0.942238,-1.43664 -0.719024,-0.880102 -0.929581,-1.494439 -0.935449,-2.729333 l -0.0048,-1.017311 -0.581274,-0.684011 c -1.072675,-1.262255 -1.358437,-2.117559 -1.268453,-3.7966 l 0.06034,-1.125878 -0.305978,-0.45216 C 31.4269,90.11898 31.01437,89.261034 30.849594,88.628407 c -0.216383,-0.830746 -0.192471,-2.124733 0.05734,-3.103161 0.186946,-0.732192 0.196097,-0.89688 0.0873,-1.571313 -0.231409,-1.434513 0.06722,-2.647468 0.958318,-3.892474 0.460092,-0.642824 0.470024,-0.686452 0.380286,-1.67097 -0.14394,-1.579268 0.15118,-2.503563 1.148279,-3.596309 l 0.494058,-0.541447 0.01461,-0.894131 c 0.01626,-0.996975 0.121135,-1.243644 0.724199,-1.703622 0.466097,-0.35551 1.142726,-0.377832 1.76313,-0.05817 0.487414,0.251142 0.731646,0.598152 1.901714,2.70197 2.985555,5.368117 7.16133,11.507948 10.348181,15.215395 2.461483,2.863593 5.341617,5.339564 5.976689,5.137999 0.416367,-0.132151 0.439106,-0.401402 0.100915,-1.195041 -0.429267,-1.007372 -0.603282,-1.806997 -0.605066,-2.780399 -0.0019,-0.941105 0.187557,-1.687527 0.628455,-2.478271 0.330882,-0.593439 0.332013,-0.622014 0.08082,-2.041805 -0.261753,-1.479441 0.240976,-3.111793 1.405084,-4.562301 0.486999,-0.606808 0.499995,-0.641001 0.558446,-1.469295 0.129656,-1.837242 0.867716,-3.026638 2.714955,-4.375209 0.379378,-0.276964 0.500045,-0.453625 0.723695,-1.059517 0.394593,-1.068988 0.752124,-1.624197 1.558393,-2.419998 0.486746,-0.480427 1.001909,-0.861063 1.583386,-1.169909 0.536765,-0.285097 0.908934,-0.553732 0.986575,-0.712119 0.06857,-0.139881 0.290768,-0.605125 0.493774,-1.033876 0.585849,-1.237307 1.501162,-2.018063 2.365859,-2.018063 0.540967,0 0.890778,0.307764 0.998837,0.878783 0.105655,0.558298 -0.09549,1.950994 -0.570977,3.953453 -0.225865,0.951188 -0.795865,3.629262 -1.266669,5.951281 -0.4708,2.322015 -0.926767,4.553623 -1.013255,4.959124 -0.258247,1.210786 -0.390425,3.032898 -0.320443,4.417334 0.09903,1.959097 0.341329,3.136947 1.095137,5.323712 0.566313,1.642844 0.828801,1.66621 1.84484,0.164241 0.798033,-1.179703 1.650392,-2.010619 2.48005,-2.417662 1.189843,-0.583758 2.77747,-0.392409 3.706255,0.446696 0.395228,0.357063 1.227827,1.607056 1.355895,2.035619 0.111404,0.372808 0.351107,0.267902 0.996022,-0.435911 0.730358,-0.797057 1.321141,-1.218841 2.210354,-1.578053 0.779535,-0.31491 0.913943,-0.512926 0.916066,-1.34957 0.0012,-0.427948 0.0737,-0.737175 0.26278,-1.119046 0.370212,-0.747687 1.083041,-1.640991 1.339261,-1.678333 0.516744,-0.07532 0.546112,0.868881 0.06445,2.072054 -0.292806,0.731415 -0.284593,0.99764 0.03218,1.042965 0.2985,0.04271 1.007592,-0.156609 1.183714,-0.332735 0.07881,-0.07881 0.175699,-0.432386 0.21531,-0.78573 0.09402,-0.838652 0.303787,-1.28504 1.061125,-2.25815 0.343236,-0.441017 0.624064,-0.840532 0.624064,-0.887802 0,-0.04727 0.114676,-0.161088 0.254837,-0.252925 0.777901,-0.5097 0.702082,0.943038 -0.123766,2.37133 -0.330294,0.571238 -0.284127,0.883822 0.136573,0.924737 0.421493,0.04099 0.7699,-0.28705 1.005339,-0.946557 0.254444,-0.712748 0.744023,-1.418603 1.505571,-2.170666 0.497604,-0.491405 0.710522,-0.636541 0.895465,-0.610387 0.218132,0.03084 0.245658,0.09146 0.272581,0.600352 0.02491,0.47065 -0.02292,0.666555 -0.283762,1.162417 -0.172539,0.328002 -0.290456,0.656961 -0.262034,0.731027 0.0378,0.09845 0.319208,0.136204 1.046744,0.140403 1.231284,0.0071 1.695113,0.144466 1.738069,0.514725 0.08549,0.736898 -2.025999,1.540414 -3.413149,1.298851 -1.817871,-0.316567 -2.846576,0.549276 -1.348232,1.134786 0.519689,0.203076 1.44882,0.759546 1.662557,0.995726 0.252288,0.278772 0.183401,0.652444 -0.136588,0.740928 -0.895503,0.247631 -2.333308,-0.04757 -3.852052,-0.790877 -1.087332,-0.532166 -1.187282,-0.561742 -1.678568,-0.496739 -0.645677,0.08543 -1.367476,0.394851 -1.455364,0.62388 -0.115599,0.301249 0.111884,0.478175 0.836825,0.650844 1.171871,0.279118 1.915398,0.806992 1.855955,1.317661 -0.03007,0.258316 -0.03908,0.260827 -0.895092,0.249246 -0.859737,-0.01161 -0.974217,-0.04032 -2.594145,-0.650164 -0.365852,-0.13773 -0.861303,-0.234581 -1.236702,-0.241752 -0.542662,-0.01038 -0.684668,0.02899 -1.063297,0.294636 -0.240345,0.168632 -0.524007,0.455601 -0.630362,0.637706 -0.179452,0.307266 -0.181636,0.349018 -0.0303,0.579966 0.212369,0.324115 0.206875,0.553525 -0.01496,0.62481 -0.631428,0.202907 -0.722642,0.27493 -0.884319,0.698284 -0.09262,0.242528 -0.235227,0.466601 -0.316897,0.497942 -0.224892,0.0863 -0.629898,-0.103684 -0.701422,-0.329025 -0.14164,-0.446281 -0.949528,-0.0105 -1.238712,0.668208 -0.186042,0.436626 -0.176718,1.323236 0.01969,1.872504 0.385695,1.078585 0.565224,2.277682 0.622599,4.158342 0.06558,2.1497 -0.07812,3.45042 -0.588622,5.32793 -1.078104,3.96503 -3.859918,8.22797 -7.209676,11.04834 -1.206491,1.01581 -1.427177,1.29105 -1.427177,1.77992 0,0.13102 0.292252,0.91773 0.649453,1.74824 1.028531,2.39139 1.560085,4.15011 2.208915,7.30849 0.450945,2.19513 0.482804,2.70676 0.197689,3.17437 -0.31786,0.52131 -1.153454,0.83487 -1.733551,0.65053 z"
       id="path1" /></g></svg>
